<?xml version="1.0" encoding="UTF-8" standalone="no"?>
<svg
   xmlns:svg="http://www.w3.org/2000/svg"
   xmlns="http://www.w3.org/2000/svg"
   version="1.0"
   width="50"
   height="41">
  <g transform="translate(-226.30325,-497.14832)">
    <path
       d="M 244.98675,513.22487 C 244.98674,513.72394 244.79148,514.13067 244.40098,514.44506 C 244.01045,514.75946 243.55508,514.91666 243.03484,514.91665 C 242.62248,514.91666 242.31338,514.81903 242.10754,514.62377 C 241.90168,514.42852 241.74448,514.17915 241.63595,513.87567 C 241.52738,513.5722 241.44068,513.25235 241.37582,512.9161 C 241.31095,512.57987 241.22424,512.26001 241.1157,511.95652 C 241.00714,511.65306 240.84432,511.4037 240.62723,511.20843 C 240.41012,511.01318 240.0848,510.91556 239.65128,510.91554 C 238.15474,510.91556 237.40648,511.7396 237.40648,513.38769 C 237.40648,513.99532 237.90521,514.6893 238.90268,515.46966 C 239.92264,516.27254 240.71988,516.91258 241.29441,517.38979 C 241.86892,517.86702 242.29716,518.28451 242.57914,518.64225 C 242.86109,519.00001 243.03467,519.34154 243.09988,519.66685 C 243.16506,519.99218 243.19766,520.41496 243.19767,520.9352 C 243.19766,521.65136 243.035,522.28595 242.70969,522.83895 C 242.38436,523.39196 241.92882,523.86372 241.34306,524.25423 C 240.75728,524.64475 240.06859,524.93746 239.27698,525.13239 C 238.48535,525.32732 237.62324,525.42478 236.69065,525.42478 C 235.93146,525.42478 235.20488,525.33807 234.51089,525.16466 C 233.8169,524.99124 233.20962,524.74188 232.68904,524.41656 C 232.16847,524.09124 231.75098,523.70089 231.43659,523.24551 C 231.12219,522.79014 230.96499,522.28049 230.96499,521.71655 C 230.96499,520.2849 231.59412,519.56907 232.85237,519.56906 C 233.41629,519.56907 233.86621,519.74794 234.20212,520.10569 C 234.53802,520.46344 234.70598,520.92428 234.70598,521.4882 C 234.70598,521.64044 234.67355,521.85754 234.60868,522.1395 C 234.54382,522.42147 234.51138,522.62731 234.51139,522.75704 C 234.51138,523.19124 234.74999,523.54932 235.22722,523.83129 C 235.70443,524.11325 236.20317,524.25423 236.72342,524.25423 C 238.52374,524.25423 239.42391,523.44077 239.42392,521.81385 C 239.42391,521.46703 239.28293,521.11457 239.00097,520.75649 C 238.719,520.39841 238.36108,520.02974 237.92722,519.65047 C 237.49335,519.27122 237.02705,518.88633 236.52832,518.49581 C 236.02959,518.1053 235.56329,517.69311 235.12942,517.25924 C 234.69555,516.82538 234.33764,516.38076 234.05568,515.92537 C 233.77371,515.47 233.63273,514.99278 233.63273,514.49371 C 233.63273,513.80006 233.78993,513.17127 234.10433,512.60733 C 234.41872,512.04341 234.84713,511.56619 235.38955,511.17566 C 235.93196,510.78516 236.56092,510.48152 237.27642,510.26474 C 237.99192,510.04799 238.76202,509.9396 239.58674,509.93959 C 241.27785,509.9396 242.60063,510.22686 243.55509,510.80137 C 244.50952,511.3759 244.98674,512.18373 244.98675,513.22487 L 244.98675,513.22487 z M 262.91927,506.32866 C 262.22493,506.32868 261.61749,506.14418 261.09693,505.77516 C 260.57634,505.40617 260.31605,504.93971 260.31607,504.37576 C 260.31605,503.68212 260.6417,503.00998 261.29301,502.35932 L 262.30074,501.3506 C 262.30072,501.28576 262.25191,501.22619 262.1543,501.17189 C 262.05665,501.11764 261.94281,501.06883 261.81276,501.02545 C 261.68268,500.98212 261.54716,500.94952 261.4062,500.92766 C 261.2652,500.90584 261.15135,500.89492 261.06466,500.89489 C 260.4577,500.91676 259.93183,501.18797 259.48705,501.70852 C 259.04225,502.22912 258.63552,502.9231 258.26686,503.79049 C 257.89818,504.65791 257.53497,505.66646 257.17723,506.81614 C 256.81947,507.96586 256.43442,509.18042 256.02207,510.45983 L 257.29091,510.45983 C 257.96338,510.45985 258.50017,510.46531 258.90128,510.47621 C 259.30237,510.48715 259.61147,510.50336 259.82859,510.52486 C 260.04567,510.54639 260.19211,510.57882 260.26792,510.62216 C 260.34369,510.66553 260.38158,510.71997 260.3816,510.78548 C 260.38158,510.80734 260.37066,510.8995 260.34883,511.06198 C 260.32697,511.22449 260.28362,511.39791 260.21877,511.58223 C 260.15389,511.76658 260.07264,511.9347 259.97503,512.08659 C 259.87739,512.2385 259.75279,512.31445 259.60123,512.31444 L 255.53459,512.31444 C 254.10292,516.4572 252.74721,519.99797 251.46746,522.93674 C 250.18769,525.87552 248.8755,528.28297 247.53088,530.1591 C 246.18626,532.03521 244.76022,533.41243 243.25277,534.29076 C 241.74532,535.16908 240.04808,535.60824 238.16104,535.60825 C 237.70566,535.60824 237.27196,535.51607 236.85993,535.33175 C 236.44791,535.1474 236.09016,534.89787 235.78668,534.58315 C 235.48321,534.26842 235.23931,533.90504 235.05496,533.49302 C 234.87064,533.08099 234.77847,532.64729 234.77846,532.19192 C 234.77847,531.3897 235.01691,530.73907 235.49379,530.24001 C 235.97069,529.74094 236.59965,529.49141 237.38067,529.49142 C 238.00947,529.49141 238.52988,529.69213 238.9419,530.09357 C 239.35393,530.495 239.55994,531.01011 239.55993,531.63891 C 239.55994,531.856 239.49491,532.11083 239.36484,532.40339 C 239.23479,532.69594 239.08851,532.96698 238.92601,533.21652 C 238.76352,533.46604 238.61725,533.67222 238.48718,533.83505 C 238.35713,533.99787 238.29209,534.06836 238.29209,534.04653 C 238.29209,534.11138 238.35696,534.14382 238.48668,534.14383 C 238.98575,534.14382 239.74494,533.86185 240.76424,533.29793 C 241.52343,532.86439 242.19028,532.19754 242.76479,531.29738 C 243.33931,530.3972 243.92492,529.13383 244.52161,527.50724 C 245.1183,525.88065 245.78532,523.83658 246.52266,521.37502 C 247.26,518.91347 248.18168,515.89328 249.2877,512.31444 L 245.7413,512.31444 C 245.37263,512.31445 245.1883,512.04341 245.1883,511.50131 C 245.1883,510.80701 245.41598,510.45985 245.87136,510.45983 L 250.00353,510.45983 C 250.52377,508.87661 251.16894,507.4289 251.93905,506.11669 C 252.70915,504.80452 253.57142,503.68212 254.52588,502.7495 C 255.48031,501.81693 256.51053,501.0958 257.61656,500.58612 C 258.72256,500.07649 259.87193,499.82167 261.06466,499.82164 C 261.67226,499.82167 262.24711,499.90291 262.78921,500.06538 C 263.33128,500.2279 263.81379,500.45559 264.23676,500.74845 C 264.65969,501.04136 264.99592,501.39381 265.24548,501.80582 C 265.49499,502.21786 265.61975,502.68433 265.61977,503.20521 C 265.61975,504.11599 265.36493,504.86425 264.85529,505.45 C 264.34562,506.03579 263.70028,506.32868 262.91927,506.32866 L 262.91927,506.32866 z M 272.59441,511.66314 C 272.5944,511.72868 272.37763,511.96746 271.94411,512.37947 C 271.51056,512.79151 270.95209,513.31208 270.26871,513.9412 C 269.5853,514.57033 268.81536,515.25902 267.95888,516.00728 C 267.10239,516.75555 266.25121,517.49835 265.40532,518.23569 C 264.55942,518.97304 263.75143,519.6561 262.98132,520.28489 C 262.21121,520.91369 261.57663,521.41242 261.07757,521.78109 L 261.20862,521.84662 C 261.83741,521.47795 262.70482,521.29361 263.81083,521.29361 C 263.9624,521.29361 264.20631,521.34243 264.54255,521.44005 C 264.87878,521.53768 265.23124,521.64061 265.59992,521.74882 C 265.96858,521.85704 266.31558,521.95997 266.6409,522.05759 C 266.96621,522.15522 267.19406,522.20404 267.32447,522.20403 C 267.51971,522.20404 267.72026,522.11733 267.92612,521.94391 C 268.13196,521.7705 268.23488,521.58617 268.23489,521.39091 C 268.23488,521.28236 268.20791,521.11424 268.15398,520.88655 C 268.10002,520.65886 268.07305,520.49074 268.07306,520.38219 C 268.07305,519.77524 268.32225,519.47177 268.82066,519.47176 C 269.66654,519.47177 270.08949,519.89471 270.0895,520.7406 C 270.08949,521.3694 269.95943,521.96576 269.69932,522.52968 C 269.43919,523.09361 269.09219,523.58705 268.65833,524.00999 C 268.22446,524.43294 267.7201,524.77448 267.14526,525.0346 C 266.5704,525.29472 265.9795,525.42478 265.37256,525.42478 C 264.98204,525.42478 264.58077,525.34899 264.16875,525.19742 C 263.75672,525.04585 263.33377,524.87789 262.89991,524.69356 C 262.46604,524.50922 262.02688,524.3411 261.58242,524.1892 C 261.13796,524.0373 260.68772,523.96135 260.23168,523.96135 C 259.9934,523.96135 259.72781,524.01546 259.43493,524.12367 C 259.14204,524.23189 258.86554,524.34574 258.60542,524.46521 C 258.3453,524.58468 258.11761,524.69869 257.92235,524.80724 C 257.7271,524.91579 257.60762,524.97006 257.56394,524.97006 C 257.54276,524.97006 257.46714,524.95914 257.33708,524.9373 C 257.20702,524.91546 257.0715,524.88832 256.93051,524.85589 C 256.78953,524.82345 256.65931,524.79086 256.53983,524.75809 C 256.42037,524.72533 256.36063,524.69836 256.36063,524.67718 C 256.36063,524.28666 256.56118,523.84734 256.96228,523.35919 C 257.36339,522.87105 258.0357,522.23117 258.97922,521.43955 C 259.92274,520.64794 261.15368,519.63939 262.67206,518.4139 C 264.19042,517.18842 266.07746,515.63249 268.33318,513.7461 C 268.15976,513.81098 267.62826,513.84341 266.73869,513.8434 C 266.56527,513.84341 266.32137,513.8272 266.00698,513.79475 C 265.69257,513.76233 265.36726,513.72444 265.03102,513.68107 C 264.69478,513.63773 264.36946,513.59967 264.05507,513.5669 C 263.74067,513.53415 263.49643,513.51776 263.32236,513.51775 C 263.04039,513.51776 262.76389,513.61539 262.49285,513.81064 C 262.2218,514.00591 261.96168,514.2283 261.71249,514.47782 C 261.46328,514.72736 261.23559,514.94976 261.02942,515.145 C 260.82324,515.34027 260.64436,515.4379 260.49279,515.43789 C 260.10228,515.4379 259.90702,515.32935 259.90702,515.11224 C 259.90702,514.87331 260.02633,514.49372 260.26494,513.97346 C 260.50355,513.45323 260.7908,512.92736 261.12672,512.39585 C 261.46262,511.86437 261.82037,511.39807 262.19997,510.99695 C 262.57955,510.59586 262.91033,510.39531 263.1923,510.3953 C 263.88662,510.39531 264.43433,510.44396 264.83544,510.54124 C 265.23653,510.63856 265.61613,510.74148 265.97421,510.85001 C 266.33229,510.95858 266.7281,511.06167 267.16164,511.15928 C 267.59517,511.25692 268.18094,511.30574 268.91895,511.30572 C 269.11354,511.30574 269.36274,511.25692 269.66655,511.15928 C 269.97035,511.06167 270.28491,510.95858 270.61024,510.85001 C 270.93555,510.74148 271.24465,510.63856 271.53755,510.54124 C 271.83042,510.44396 272.06357,510.39531 272.237,510.3953 C 272.36671,510.39531 272.45871,510.53629 272.513,510.81824 C 272.56726,511.10022 272.5944,511.3385 272.59441,511.53308 L 272.59441,511.66314 L 272.59441,511.66314 z "
       style="font-size:32.53310013px;font-style:normal;font-weight:normal;text-align:center;text-anchor:middle;fill:#000000;fill-opacity:1;stroke:none;stroke-width:1px;stroke-linecap:butt;stroke-linejoin:miter;stroke-opacity:1;font-family:Arial"
       id="text3259" />
  </g>
</svg>
